<?xml version="1.0" encoding="utf-8"?>
<!-- Generator: Adobe Illustrator 26.0.1, SVG Export Plug-In . SVG Version: 6.00 Build 0)  -->
<svg version="1.1" id="Layer_1" xmlns="http://www.w3.org/2000/svg" xmlns:xlink="http://www.w3.org/1999/xlink" x="0px" y="0px"
	 viewBox="0 0 1979 1468" style="enable-background:new 0 0 1979 1468;" xml:space="preserve">
<style type="text/css">
	.st0{fill:none;stroke:#000000;stroke-width:3;stroke-linecap:round;stroke-linejoin:round;}
	.st1{font-family:'Arial';}
	.st2{font-size:48px;}
	.st3{font-size:48px;}
	.st4{font-size:12px;}
	.st5{fill:#0056A7;fill-opacity:0.2;stroke:#ED1C24;stroke-width:3;enable-background:new    ;}
	.st6{fill:#0056A7;fill-opacity:0.2;stroke:#ED1C24;stroke-width:3;}
</style>
<g id="Background-Layer">
	<image style="overflow:visible;enable-background:new    ;" width="1979" height="1468" id="image" xlink:href="D57DBB4D.jpeg" >
	</image>
</g>
<path id="Line" class="st0" d="M330,267l-5,741"/>
<path id="Line-1" class="st0" d="M357,267h-34"/>
<path id="Line-2" class="st0" d="M355,1008h-32"/>
<path id="Line-3" class="st0" d="M323,1168h34"/>
<path id="Line-4" class="st0" d="M330,1192l27-1"/>
<path id="Line-5" class="st0" d="M326,1372l1-180"/>
<path id="Line-6" class="st0" d="M256,1395l156,1"/>
<path id="Line-7" class="st0" d="M325,1372h32"/>
<path id="Line-8" class="st0" d="M525,97l118-38"/>
<g id="Colonic--Patch">
	<text transform="matrix(1 0 0 1 669 64)" class="st1 st2">Colonic </text>
	<text transform="matrix(1 0 0 1 669 117)" class="st1 st2">Patch</text>
</g>
<g id="Colonic-Patch">
	<text id="string-1" transform="matrix(1 0 0 1 879 724)" class="st1 st3">Colonic Patch</text>
</g>
<g id="Submucosa">
	<text id="string-2" transform="matrix(1 0 0 1 44 1114)" class="st1 st2">Submucosa</text>
</g>
<g id="Muscularis-externa">
	<text transform="matrix(1 0 0 1 55 1280)" class="st1 st2">Muscularis</text>
	<text transform="matrix(1 0 0 1 265.2676 1280)" class="st1 st4"> </text>
	<text transform="matrix(1 0 0 1 55 1333)" class="st1 st2">externa</text>
</g>
<g id="Serosa">
	<text id="string-4" transform="matrix(1 0 0 1 111 1410)" class="st1 st2">Serosa</text>
</g>
<g id="Circular-muscle">
	<text transform="matrix(1 0 0 1 1716 1206)" class="st1 st2">Circular</text>
	<text transform="matrix(1 0 0 1 1867.5723 1206)" class="st1 st4"> </text>
	<text transform="matrix(1 0 0 1 1716 1259)" class="st1 st2">muscle</text>
</g>
<g id="Longitudinal-muscle">
	<text transform="matrix(1 0 0 1 1712 1331)" class="st1 st2">Longitudinal</text>
	<text transform="matrix(1 0 0 1 1949.3164 1331)" class="st1 st4"> </text>
	<text transform="matrix(1 0 0 1 1712 1384)" class="st1 st2">muscle</text>
</g>
<g id="Submucosa--connective--tissue">
	<text transform="matrix(1 0 0 1 1722 1024)" class="st1 st2">Submucosa </text>
	<text transform="matrix(1 0 0 1 1722 1077)" class="st1 st2">connective </text>
	<text transform="matrix(1 0 0 1 1722 1130)" class="st1 st2">tissue</text>
</g>
<g id="Lamina-propria">
	<text transform="matrix(1 0 0 1 1739 669)" class="st1 st2">Lamina</text>
	<text transform="matrix(1 0 0 1 1883.3105 669)" class="st1 st4"> </text>
	<text transform="matrix(1 0 0 1 1739 722)" class="st1 st2">propria</text>
</g>
<g id="Muscularis-mucosae">
	<text transform="matrix(1 0 0 1 1739 813)" class="st1 st2">Muscularis</text>
	<text transform="matrix(1 0 0 1 1949.2676 813)" class="st1 st4"> </text>
	<text transform="matrix(1 0 0 1 1739 866)" class="st1 st2">mucosae</text>
</g>
<path id="Line-9" class="st0" d="M1348,131l-109,136"/>
<path id="Line-10" class="st0" d="M1432,408l-84-277"/>
<g id="Vessels">
	<text id="string-10" transform="matrix(1 0 0 1 1192 1173)" class="st1 st3">Vessels</text>
</g>
<path id="Line-11" class="st0" d="M1324,1110l-30,34"/>
<path id="Line-12" class="st0" d="M1738.4,819.2l-92,165"/>
<path id="Line-13" class="st0" d="M1703,1076l-79,68"/>
<path id="Line-14" class="st0" d="M562,251v94.5"/>
<path id="Line-15" class="st0" d="M1711,1216.2l-58.5-7.4"/>
<path id="Line-16" class="st0" d="M1691,1318h-49"/>
<path id="Line-17" class="st0" d="M327,1294h-35"/>
<path id="Line-18" class="st0" d="M325,1107h-33"/>
<path id="Line-19" class="st0" d="M515,1039h-33"/>
<g id="Epithelium">
	<text id="string-11" transform="matrix(1 0 0 1 487 237)" class="st1 st2">Epithelium</text>
</g>
<g id="Crypt">
	<text id="string-12" transform="matrix(1 0 0 1 1321 97)" class="st1 st2">Crypt</text>
</g>
<g id="Entero--endocrine--cell">
	<text transform="matrix(1 0 0 1 1716 386)" class="st1 st3">Entero-</text>
	<text transform="matrix(1 0 0 1 1873.4062 386)" class="st1 st4"> </text>
	<text transform="matrix(1 0 0 1 1716 444)" class="st1 st3">endocrine</text>
	<text transform="matrix(1 0 0 1 1926.8203 444)" class="st1 st4"> </text>
	<text transform="matrix(1 0 0 1 1716 502)" class="st1 st3">cells</text>
</g>
<path id="Line-20" class="st0" d="M1711,408l-204,63"/>
<path id="Line-21" class="st0" d="M1594,875l117-467"/>
<g id="Mucosa">
	<text id="string-14" transform="matrix(1 0 0 1 111 813)" class="st1 st2">Mucosa</text>
</g>
<path id="Line-22" class="st0" d="M1730.3,689.1l-128.2,243"/>
<path id="Line-23" class="st0" d="M357,1035l-34,2"/>
<path id="Line-24" class="st0" d="M323,1168v-131"/>
<path id="circularMuscle" class="st5" d="M482,1183.2l296.5,7.8l611.5-18l262.5,10.2v65.3l-387.6-12.3l-304.6,21l-584.6,2.3v-76.3
	H482z"/>
<path id="longitudinalMuscle" class="st5" d="M375.7,1259.5h473.8l473.7-21.5l329.3,19.1v112.4l-43.5,2.4h-15l-39.9,6l-47.1-8.4
	l-42.1,2.4h-49.2l-25.7,6l-42-6l-54.5,6l-54.5-6l-46.8-5.4l-28.9-5.4l-46.2,5.4l-50.8-5.4l-41.5,10.8l-53.8-5.4l-46.2,5.4l-58.5-5.4
	l-47.7,5.4l-61.5-5.4h-27.7h-16.9l-32.3,5.4h-53.8H562l-63.5-5.4h-22.8l-24.6-5.4l-75.4,10.8V1259.5z"/>
<path id="colonicPatch" class="st6" d="M950.3,430.2c29.8-4.8,116.2-18.9,201.5,27.7c57.7,31.5,87.7,75.9,107.7,106.2
	c22.8,34.5,105.5,159.9,53.8,278.5c-28,64.1-82.7,97.4-100,107.7c-37.1,21.9-70.4,27.2-135.4,36.9c-101.1,15.1-159.3,23.8-220-7.7
	c-41.2-21.4-64.4-51.3-83.1-75.4c-19.9-25.7-70.3-90.8-69.2-184.6c1-86,44.7-145.2,69.2-178.5c17.8-24.2,46.4-62,98.5-87.7
	C904.7,437.8,931.3,433.2,950.3,430.2z"/>
<path id="connectiveTissue" class="st6" d="M1624,1173h-198.3v-46H1624V1173z"/>
<path id="vessels" class="st6" d="M1273.3,1094.8c-0.8-12,9.4-24,20-29.2c21.2-10.5,46.6,4.5,69.5,18c22.5,13.3,44.4,26.2,42.8,42
	c-1.6,15.6-25.5,27.8-45.1,28.4c-14.7,0.4-28.1-8.7-54.9-26.8C1275.3,1106.5,1273.6,1098.6,1273.3,1094.8z"/>
<path id="epithelium" class="st6" d="M665.6,917.8h-250c-22.1,0-40-17.9-40-40V385.5c0-22.1,17.9-40,40-40h250c22.1,0,40,17.9,40,40
	v492.3C705.6,899.9,687.7,917.8,665.6,917.8z"/>
<path id="muscularisMucosae" class="st6" d="M1650.3,1004c-22.3,3.8-57.8,9.6-101.5,15.4c-95.4,12.6-140.5,13.2-255.4,23.1
	c-124.4,10.7-110.5,13.2-204.6,20c-94.9,6.9-148.1,10.5-216.9,6.2c-55.5-3.5-56-8.1-187.7-29.2c-120.9-19.4-301.6-44-309.6-42.9
	c0,0,0,0-0.1,0c0,0-0.5,0.1-1.1-0.2c-0.6-0.2-4.2-8.6-2.5-12.9c4.2-10.6,44.3-4.2,45.6-4c52.4,8.3,105.5,12.1,158.5,15.4
	c121.6,7.6,111.5,2.2,169.2,7.7c127.7,12.1,127.7,34,223.1,35.4c85.6,1.3,166.6-15.1,175.4-16.9c53.1-11,68.1-19.8,118.5-24.6
	c33.8-3.2,51.7-1.6,126.2,0c99.3,2.1,111.1,2.6,117.2,2c0.7-0.1,1.4-0.2,2.8-0.4c37.2-5.4,52-2.6,73.8-4.6
	c39.8-3.6,55.8-18.5,65.3-9.1C1651.4,989.2,1651.2,997.7,1650.3,1004z"/>
<path id="enteroCells" class="st6" d="M1897.9,522.5h-154.3c-18,0-32.6-14.6-32.6-32.6V364.3c0-18,14.6-32.6,32.6-32.6h154.3
	c18,0,32.6,14.6,32.6,32.6v125.6C1930.5,507.9,1915.9,522.5,1897.9,522.5z"/>
<path id="laminaPropria" class="st6" d="M1573.7,988.4h-252.8c-19.5,0-35.3-15.8-35.3-35.3v0c0-19.5,15.8-35.3,35.3-35.3h252.8
	c19.5,0,35.3,15.8,35.3,35.3v0C1609,972.6,1593.2,988.4,1573.7,988.4z"/>
</svg>
